<svg xmlns="http://www.w3.org/2000/svg" 
version="1.1" 
xmlns:xlink="http://www.w3.org/1999/xlink" 
xmlns:svgjs="http://svgjs.dev/svgjs" 
width="1000" 
height="1000" 
viewBox="0 0 1000 1000">
<g transform="matrix(1,0,0,1,-0.14221556886212738,-0.14221556886229791)">
<svg viewBox="0 0 334 334" data-background-color="#fff" preserveAspectRatio="xMidYMid meet" height="1000" width="1000" xmlns="http://www.w3.org/2000/svg" xmlns:xlink="http://www.w3.org/1999/xlink"><defs></defs><g id="tight-bounds" transform="matrix(1,0,0,1,0.04749999999998522,0.04750000000001364)"><svg viewBox="0 0 333.90454557049503 333.90454557049503" height="333.90454557049503" width="333.90454557049503"><g><svg></svg></g><g><svg viewBox="0 0 333.90454557049503 333.90454557049503" height="333.90454557049503" width="333.90454557049503"><g><path d="M0 166.952c0-92.205 74.747-166.952 166.952-166.952 92.205 0 166.952 74.747 166.953 166.952 0 92.205-74.747 166.952-166.953 166.953-92.205 0-166.952-74.747-166.952-166.953zM166.952 316.63c82.665 0 149.677-67.013 149.678-149.678 0-82.665-67.013-149.677-149.678-149.677-82.665 0-149.677 67.013-149.677 149.677 0 82.665 67.013 149.677 149.677 149.678z" data-fill-palette-color="tertiary" fill="#212F3D" stroke="transparent"></path><ellipse rx="160.27418187383762" ry="160.27418187383762" cx="166.95227278524752" cy="166.95227278524752" fill="#fff" stroke="transparent" stroke-width="0" fill-opacity="1" data-fill-palette-color="tertiary"></ellipse></g><g transform="matrix(1,0,0,1,86.87846474433027,71.17305217166896)"><svg viewBox="0 0 160.14761608183449 191.55844122715712" height="191.55844122715712" width="160.14761608183449"><g><svg viewBox="0 0 160.14761608183449 191.55844122715712" height="191.55844122715712" width="160.14761608183449"><g><svg viewBox="0 0 160.14761608183449 191.55844122715712" height="191.55844122715712" width="160.14761608183449"><g><svg viewBox="0 0 160.14761608183449 191.55844122715712" height="191.55844122715712" width="160.14761608183449"><g><svg viewBox="0 0 160.14761608183449 191.55844122715712" height="191.55844122715712" width="160.14761608183449"><g><svg viewBox="0 0 160.14761608183449 191.55844122715712" height="191.55844122715712" width="160.14761608183449"><g transform="matrix(1,0,0,1,0,0)"><svg width="160.14761608183449" viewBox="4.05 -39.95 33.650000000000006 40.25" height="191.55844122715712" data-palette-color="#212F3D"><path d="M9.95-34.65L9.95-2.1Q9.95 0.3 7 0.3L7 0.3Q4.05 0.3 4.05-2.1L4.05-2.1 4.05-36.7Q4.05-37.85 4.7-38.78 5.35-39.7 7.2-39.7L7.2-39.7 24.2-39.7Q26-39.7 26.1-37.2L26.1-37.2Q26.2-34.65 24.2-34.65L24.2-34.65 9.95-34.65ZM22.75-20.65L22.75-20.65Q22.75-19.8 22.43-19.03 22.1-18.25 21.53-17.7 20.95-17.15 20.2-16.82 19.45-16.5 18.55-16.5L18.55-16.5Q16.85-16.5 15.65-17.7 14.45-18.9 14.45-20.65L14.45-20.65Q14.45-22.4 15.65-23.6 16.85-24.8 18.55-24.8L18.55-24.8Q19.45-24.8 20.2-24.48 20.95-24.15 21.53-23.58 22.1-23 22.43-22.25 22.75-21.5 22.75-20.65ZM37.7-37.55L37.7-2.1Q37.7 0.3 34.7 0.3L34.7 0.3Q31.75 0.3 31.75-2.1L31.75-2.1 31.75-37.55Q31.75-39.95 34.7-39.95L34.7-39.95Q37.7-39.95 37.7-37.55L37.7-37.55Z" opacity="1" transform="matrix(1,0,0,1,0,0)" fill="#212F3D" class="undefined-text-0" data-fill-palette-color="quaternary" id="text-0"></path></svg></g></svg></g></svg></g></svg></g><g></g></svg></g></svg></g></svg></g></svg></g></svg><rect width="333.90454557049503" height="333.90454557049503" fill="none" stroke="none" visibility="hidden"></rect></g></svg></g></svg>