<?xml version="1.0" encoding="utf-8"?>
<!-- Svg Vector Icons : http://www.onlinewebfonts.com/icon -->
<!DOCTYPE svg PUBLIC "-//W3C//DTD SVG 1.1//EN" "http://www.w3.org/Graphics/SVG/1.1/DTD/svg11.dtd">
<svg version="1.1" xmlns="http://www.w3.org/2000/svg" xmlns:xlink="http://www.w3.org/1999/xlink" x="0px" y="0px" width="450" height="450" viewBox="0 0 1000 1000" enable-background="new 0 0 1000 1000" xml:space="preserve">
<metadata> Svg Vector Icons : http://www.onlinewebfonts.com/icon </metadata>
<g><g transform="translate(0.000000,511.000000) scale(0.100000,-0.100000)">
<path  d="M2593.7,4276.2c-511.9-109.4-953.7-555.6-1060.9-1069.7C1325,2213.4,2202.2,1336.2,3195.3,1544c630,131.3,1104.7,719.7,1104.7,1367.2C4300,3799.4,3468.7,4464.3,2593.7,4276.2z"/>
<path  d="M6793.7,4276.2c-511.9-109.4-953.7-555.6-1060.9-1069.7C5525,2213.4,6402.2,1336.2,7395.3,1544c520.6,109.4,962.5,551.3,1071.9,1071.9C8675,3613.4,7791.2,4490.6,6793.7,4276.2z"/>
<path  d="M1631.2,1345c-459.4-122.5-885.9-310.6-1218.4-531.6C244.4,699.7,205,662.5,156.9,566.2L100,452.5v-695.6v-695.6h750.3h748.1L2412.2-206c448.4,402.5,820.3,732.8,826.9,732.8S3250,196.5,3250-206v-732.8h347.8h350l6.6,750.3l6.6,748.1l56.9,122.5c78.8,166.2,190.3,286.6,398.1,420l170.6,111.6l-115.9,41.5c-63.4,21.9-201.2,63.4-304.1,89.7c-166.3,45.9-190.3,48.1-229.7,19.7c-80.9-63.4-437.5-225.3-577.5-262.5c-220.9-61.2-721.9-54.7-947.2,10.9c-164.1,46-426.6,166.3-540.3,245C1819.4,1395.3,1808.4,1393.1,1631.2,1345z"/>
<path  d="M5831.2,1345c-459.4-122.5-885.9-310.6-1218.4-531.6c-168.4-113.8-207.8-150.9-255.9-247.2L4300,452.5v-695.6v-695.6h1400h1400v-525v-525l-704.4-4.4l-704.4-6.6l-400.3-514.1l-400.3-514.1l1104.7-6.6l1104.7-4.4v-525v-525l864.1,776.6c474.7,428.8,864.1,787.5,864.1,798.4s-385,367.5-857.5,791.9l-857.5,772.2l1393.4,6.6l1393.4,4.4v695.6v695.6l-56.9,113.7c-48.1,96.3-87.5,133.5-255.9,247.2c-332.5,223.1-759.1,409-1220.6,533.7c-166.3,43.8-190.3,45.9-229.7,17.5c-78.8-61.2-435.3-223.1-566.6-260.3c-72.2-19.7-251.6-41.6-400.3-46c-223.1-10.9-299.7-4.4-472.5,35c-192.5,45.9-494.4,170.6-623.4,262.5C6019.4,1395.3,6012.8,1395.3,5831.2,1345z"/>
<path  d="M2038.1-1015.4c-468.1-422.2-855.3-778.7-859.7-791.9c-4.4-13.1,380.6-374.1,857.5-802.8l864.1-778.8v525v525h695.6h693.4l352.2,520.6l352.2,518.4l-1045.6,6.6l-1047.8,4.4l-4.4,520.6l-6.6,520.6L2038.1-1015.4z"/>
</g></g>
</svg>